<mxfile host="app.diagrams.net" modified="2022-10-27T10:12:58.647Z" agent="5.0 (Windows NT 10.0; Win64; x64) AppleWebKit/537.36 (KHTML, like Gecko) Chrome/105.0.0.0 Safari/537.36 OPR/91.0.4516.95" etag="t2fJ-YbRdj5m5-s6QwrS" version="20.5.1" type="github">
  <diagram id="IYwwzzoT3rAhXUnu4lPh" name="Seite-1">
    <mxGraphModel dx="1381" dy="756" grid="1" gridSize="10" guides="1" tooltips="1" connect="1" arrows="1" fold="1" page="1" pageScale="1" pageWidth="827" pageHeight="1169" math="0" shadow="0">
      <root>
        <mxCell id="0" />
        <mxCell id="1" parent="0" />
        <mxCell id="j30rHgIVBgkxMI24BHkt-8" value="" style="ellipse;html=1;shape=startState;fillColor=#000000;strokeColor=#ff0000;" parent="1" vertex="1">
          <mxGeometry x="90" y="50" width="30" height="30" as="geometry" />
        </mxCell>
        <mxCell id="j30rHgIVBgkxMI24BHkt-9" value="" style="edgeStyle=orthogonalEdgeStyle;html=1;verticalAlign=bottom;endArrow=open;endSize=8;strokeColor=#ff0000;rounded=0;" parent="1" source="j30rHgIVBgkxMI24BHkt-8" edge="1">
          <mxGeometry relative="1" as="geometry">
            <mxPoint x="105" y="140" as="targetPoint" />
          </mxGeometry>
        </mxCell>
        <mxCell id="j30rHgIVBgkxMI24BHkt-10" value="Click Create New Workout" style="rounded=1;whiteSpace=wrap;html=1;arcSize=40;fontColor=#000000;fillColor=#ffffc0;strokeColor=#ff0000;" parent="1" vertex="1">
          <mxGeometry x="45" y="140" width="120" height="40" as="geometry" />
        </mxCell>
        <mxCell id="j30rHgIVBgkxMI24BHkt-11" value="" style="edgeStyle=orthogonalEdgeStyle;html=1;verticalAlign=bottom;endArrow=open;endSize=8;strokeColor=#ff0000;rounded=0;entryX=0;entryY=0.5;entryDx=0;entryDy=0;" parent="1" source="j30rHgIVBgkxMI24BHkt-10" target="j30rHgIVBgkxMI24BHkt-29" edge="1">
          <mxGeometry relative="1" as="geometry">
            <mxPoint x="105" y="240" as="targetPoint" />
          </mxGeometry>
        </mxCell>
        <mxCell id="j30rHgIVBgkxMI24BHkt-12" value="Enter Name" style="rounded=1;whiteSpace=wrap;html=1;arcSize=40;fontColor=#000000;fillColor=#ffffc0;strokeColor=#ff0000;" parent="1" vertex="1">
          <mxGeometry x="45" y="240" width="120" height="40" as="geometry" />
        </mxCell>
        <mxCell id="j30rHgIVBgkxMI24BHkt-13" value="" style="edgeStyle=orthogonalEdgeStyle;html=1;verticalAlign=bottom;endArrow=open;endSize=8;strokeColor=#ff0000;rounded=0;" parent="1" source="j30rHgIVBgkxMI24BHkt-12" edge="1">
          <mxGeometry relative="1" as="geometry">
            <mxPoint x="105" y="340" as="targetPoint" />
          </mxGeometry>
        </mxCell>
        <mxCell id="j30rHgIVBgkxMI24BHkt-14" value="Klick Add Exercise" style="rhombus;whiteSpace=wrap;html=1;fillColor=#ffffc0;strokeColor=#ff0000;" parent="1" vertex="1">
          <mxGeometry x="65" y="340" width="95" height="80" as="geometry" />
        </mxCell>
        <mxCell id="j30rHgIVBgkxMI24BHkt-15" value="no" style="edgeStyle=orthogonalEdgeStyle;html=1;align=left;verticalAlign=bottom;endArrow=open;endSize=8;strokeColor=#ff0000;rounded=0;entryX=0;entryY=0.5;entryDx=0;entryDy=0;" parent="1" source="j30rHgIVBgkxMI24BHkt-14" target="j30rHgIVBgkxMI24BHkt-17" edge="1">
          <mxGeometry x="-1" relative="1" as="geometry">
            <mxPoint x="250" y="360" as="targetPoint" />
          </mxGeometry>
        </mxCell>
        <mxCell id="j30rHgIVBgkxMI24BHkt-16" value="yes" style="edgeStyle=orthogonalEdgeStyle;html=1;align=left;verticalAlign=top;endArrow=open;endSize=8;strokeColor=#ff0000;rounded=0;entryX=0;entryY=0.5;entryDx=0;entryDy=0;" parent="1" source="j30rHgIVBgkxMI24BHkt-14" target="j30rHgIVBgkxMI24BHkt-39" edge="1">
          <mxGeometry x="-1" relative="1" as="geometry">
            <mxPoint x="113" y="490" as="targetPoint" />
            <Array as="points">
              <mxPoint x="113" y="460" />
            </Array>
          </mxGeometry>
        </mxCell>
        <mxCell id="j30rHgIVBgkxMI24BHkt-17" value="Klick Safe" style="rhombus;whiteSpace=wrap;html=1;fillColor=#ffffc0;strokeColor=#ff0000;" parent="1" vertex="1">
          <mxGeometry x="250" y="360" width="80" height="40" as="geometry" />
        </mxCell>
        <mxCell id="j30rHgIVBgkxMI24BHkt-18" value="no" style="edgeStyle=orthogonalEdgeStyle;html=1;align=left;verticalAlign=bottom;endArrow=open;endSize=8;strokeColor=#ff0000;rounded=0;" parent="1" source="j30rHgIVBgkxMI24BHkt-17" edge="1">
          <mxGeometry x="-1" relative="1" as="geometry">
            <mxPoint x="100" y="310" as="targetPoint" />
            <Array as="points">
              <mxPoint x="390" y="380" />
            </Array>
          </mxGeometry>
        </mxCell>
        <mxCell id="j30rHgIVBgkxMI24BHkt-19" value="yes" style="edgeStyle=orthogonalEdgeStyle;html=1;align=left;verticalAlign=top;endArrow=open;endSize=8;strokeColor=#ff0000;rounded=0;entryX=0;entryY=0.5;entryDx=0;entryDy=0;" parent="1" source="j30rHgIVBgkxMI24BHkt-17" target="j30rHgIVBgkxMI24BHkt-31" edge="1">
          <mxGeometry x="-1" y="10" relative="1" as="geometry">
            <mxPoint x="290" y="440" as="targetPoint" />
            <Array as="points">
              <mxPoint x="290" y="430" />
            </Array>
            <mxPoint as="offset" />
          </mxGeometry>
        </mxCell>
        <mxCell id="j30rHgIVBgkxMI24BHkt-22" value="" style="edgeStyle=orthogonalEdgeStyle;html=1;verticalAlign=bottom;endArrow=open;endSize=8;strokeColor=#ff0000;rounded=0;" parent="1" source="j30rHgIVBgkxMI24BHkt-21" edge="1">
          <mxGeometry relative="1" as="geometry">
            <mxPoint x="112.5" y="590" as="targetPoint" />
          </mxGeometry>
        </mxCell>
        <mxCell id="j30rHgIVBgkxMI24BHkt-26" value="User" style="swimlane;" parent="1" vertex="1">
          <mxGeometry x="20" y="10" width="390" height="1650" as="geometry" />
        </mxCell>
        <mxCell id="j30rHgIVBgkxMI24BHkt-21" value="Enter reps, Sets,Pause" style="rounded=1;whiteSpace=wrap;html=1;arcSize=40;fontColor=#000000;fillColor=#ffffc0;strokeColor=#ff0000;" parent="j30rHgIVBgkxMI24BHkt-26" vertex="1">
          <mxGeometry x="32.5" y="500" width="120" height="40" as="geometry" />
        </mxCell>
        <mxCell id="j30rHgIVBgkxMI24BHkt-49" value="Klick ok" style="rounded=1;whiteSpace=wrap;html=1;arcSize=40;fontColor=#000000;fillColor=#ffffc0;strokeColor=#ff0000;" parent="j30rHgIVBgkxMI24BHkt-26" vertex="1">
          <mxGeometry x="32.5" y="580" width="120" height="40" as="geometry" />
        </mxCell>
        <mxCell id="j30rHgIVBgkxMI24BHkt-50" value="" style="edgeStyle=orthogonalEdgeStyle;html=1;verticalAlign=bottom;endArrow=open;endSize=8;strokeColor=#ff0000;rounded=0;" parent="j30rHgIVBgkxMI24BHkt-26" source="j30rHgIVBgkxMI24BHkt-49" edge="1">
          <mxGeometry relative="1" as="geometry">
            <mxPoint x="93" y="690" as="targetPoint" />
            <Array as="points">
              <mxPoint x="93" y="680" />
            </Array>
          </mxGeometry>
        </mxCell>
        <mxCell id="j30rHgIVBgkxMI24BHkt-51" value="Klick add Exercise" style="rhombus;whiteSpace=wrap;html=1;fillColor=#ffffc0;strokeColor=#ff0000;" parent="j30rHgIVBgkxMI24BHkt-26" vertex="1">
          <mxGeometry x="50" y="690" width="90" height="80" as="geometry" />
        </mxCell>
        <mxCell id="j30rHgIVBgkxMI24BHkt-53" value="yes" style="edgeStyle=orthogonalEdgeStyle;html=1;align=left;verticalAlign=top;endArrow=open;endSize=8;strokeColor=#ff0000;rounded=0;" parent="j30rHgIVBgkxMI24BHkt-26" source="j30rHgIVBgkxMI24BHkt-51" edge="1">
          <mxGeometry x="-1" relative="1" as="geometry">
            <mxPoint x="200" y="450" as="targetPoint" />
            <Array as="points">
              <mxPoint x="95" y="790" />
              <mxPoint x="200" y="790" />
            </Array>
          </mxGeometry>
        </mxCell>
        <mxCell id="j30rHgIVBgkxMI24BHkt-54" value="Enter Exercise Pause time" style="rounded=1;whiteSpace=wrap;html=1;arcSize=40;fontColor=#000000;fillColor=#ffffc0;strokeColor=#ff0000;" parent="j30rHgIVBgkxMI24BHkt-26" vertex="1">
          <mxGeometry x="220" y="710" width="120" height="40" as="geometry" />
        </mxCell>
        <mxCell id="j30rHgIVBgkxMI24BHkt-52" value="no" style="edgeStyle=orthogonalEdgeStyle;html=1;align=left;verticalAlign=bottom;endArrow=open;endSize=8;strokeColor=#ff0000;rounded=0;" parent="j30rHgIVBgkxMI24BHkt-26" source="j30rHgIVBgkxMI24BHkt-51" target="j30rHgIVBgkxMI24BHkt-54" edge="1">
          <mxGeometry x="-1" relative="1" as="geometry">
            <mxPoint x="220" y="730" as="targetPoint" />
          </mxGeometry>
        </mxCell>
        <mxCell id="j30rHgIVBgkxMI24BHkt-27" value="System" style="swimlane;" parent="1" vertex="1">
          <mxGeometry x="414" y="10" width="200" height="1650" as="geometry" />
        </mxCell>
        <mxCell id="j30rHgIVBgkxMI24BHkt-31" value="Check Data Valaid" style="rounded=1;whiteSpace=wrap;html=1;arcSize=40;fontColor=#000000;fillColor=#ffffc0;strokeColor=#ff0000;" parent="j30rHgIVBgkxMI24BHkt-27" vertex="1">
          <mxGeometry x="40" y="80" width="120" height="40" as="geometry" />
        </mxCell>
        <mxCell id="j30rHgIVBgkxMI24BHkt-32" value="" style="edgeStyle=orthogonalEdgeStyle;html=1;verticalAlign=bottom;endArrow=open;endSize=8;strokeColor=#ff0000;rounded=0;" parent="j30rHgIVBgkxMI24BHkt-27" source="j30rHgIVBgkxMI24BHkt-31" edge="1">
          <mxGeometry relative="1" as="geometry">
            <mxPoint x="100" y="500" as="targetPoint" />
          </mxGeometry>
        </mxCell>
        <mxCell id="j30rHgIVBgkxMI24BHkt-33" value="Condition" style="rhombus;whiteSpace=wrap;html=1;fillColor=#ffffc0;strokeColor=#ff0000;" parent="j30rHgIVBgkxMI24BHkt-27" vertex="1">
          <mxGeometry x="60" y="500" width="80" height="40" as="geometry" />
        </mxCell>
        <mxCell id="j30rHgIVBgkxMI24BHkt-38" value="" style="edgeStyle=orthogonalEdgeStyle;html=1;verticalAlign=bottom;endArrow=open;endSize=8;strokeColor=#ff0000;rounded=0;exitX=0;exitY=0.5;exitDx=0;exitDy=0;" parent="j30rHgIVBgkxMI24BHkt-27" source="j30rHgIVBgkxMI24BHkt-36" edge="1">
          <mxGeometry relative="1" as="geometry">
            <mxPoint x="-310" y="210" as="targetPoint" />
            <mxPoint x="130" y="280" as="sourcePoint" />
            <Array as="points">
              <mxPoint x="230" y="210" />
            </Array>
          </mxGeometry>
        </mxCell>
        <mxCell id="j30rHgIVBgkxMI24BHkt-41" value="Safe Data" style="rounded=1;whiteSpace=wrap;html=1;arcSize=40;fontColor=#000000;fillColor=#ffffc0;strokeColor=#ff0000;" parent="j30rHgIVBgkxMI24BHkt-27" vertex="1">
          <mxGeometry x="40" y="580" width="120" height="40" as="geometry" />
        </mxCell>
        <mxCell id="j30rHgIVBgkxMI24BHkt-56" value="" style="edgeStyle=orthogonalEdgeStyle;html=1;verticalAlign=bottom;endArrow=open;endSize=8;strokeColor=#ff0000;rounded=0;exitX=1;exitY=0.5;exitDx=0;exitDy=0;" parent="j30rHgIVBgkxMI24BHkt-27" source="j30rHgIVBgkxMI24BHkt-54" edge="1">
          <mxGeometry relative="1" as="geometry">
            <mxPoint x="-174" y="370" as="targetPoint" />
            <mxPoint x="100" y="770" as="sourcePoint" />
          </mxGeometry>
        </mxCell>
        <mxCell id="j30rHgIVBgkxMI24BHkt-28" value="UI" style="swimlane;" parent="1" vertex="1">
          <mxGeometry x="610" y="10" width="200" height="1650" as="geometry" />
        </mxCell>
        <mxCell id="j30rHgIVBgkxMI24BHkt-29" value="Open Create Workout View" style="rounded=1;whiteSpace=wrap;html=1;arcSize=40;fontColor=#000000;fillColor=#ffffc0;strokeColor=#ff0000;" parent="j30rHgIVBgkxMI24BHkt-28" vertex="1">
          <mxGeometry x="40" y="130" width="120" height="40" as="geometry" />
        </mxCell>
        <mxCell id="j30rHgIVBgkxMI24BHkt-36" value="Mark field invalid" style="rounded=1;whiteSpace=wrap;html=1;arcSize=40;fontColor=#000000;fillColor=#ffffc0;strokeColor=#ff0000;" parent="j30rHgIVBgkxMI24BHkt-28" vertex="1">
          <mxGeometry x="40" y="575" width="120" height="40" as="geometry" />
        </mxCell>
        <mxCell id="j30rHgIVBgkxMI24BHkt-39" value="Open Exercise DataForm View" style="rounded=1;whiteSpace=wrap;html=1;arcSize=40;fontColor=#000000;fillColor=#ffffc0;strokeColor=#ff0000;" parent="j30rHgIVBgkxMI24BHkt-28" vertex="1">
          <mxGeometry x="40" y="440" width="120" height="40" as="geometry" />
        </mxCell>
        <mxCell id="j30rHgIVBgkxMI24BHkt-43" value="Show Workouts View" style="rounded=1;whiteSpace=wrap;html=1;arcSize=40;fontColor=#000000;fillColor=#ffffc0;strokeColor=#ff0000;" parent="j30rHgIVBgkxMI24BHkt-28" vertex="1">
          <mxGeometry x="40" y="660" width="120" height="40" as="geometry" />
        </mxCell>
        <mxCell id="j30rHgIVBgkxMI24BHkt-20" value="" style="ellipse;html=1;shape=endState;fillColor=#000000;strokeColor=#ff0000;" parent="j30rHgIVBgkxMI24BHkt-28" vertex="1">
          <mxGeometry x="85" y="760" width="30" height="30" as="geometry" />
        </mxCell>
        <mxCell id="j30rHgIVBgkxMI24BHkt-45" value="" style="edgeStyle=orthogonalEdgeStyle;html=1;verticalAlign=bottom;endArrow=open;endSize=8;strokeColor=#ff0000;rounded=0;exitX=0.5;exitY=1;exitDx=0;exitDy=0;entryX=0.5;entryY=0;entryDx=0;entryDy=0;" parent="j30rHgIVBgkxMI24BHkt-28" source="j30rHgIVBgkxMI24BHkt-43" target="j30rHgIVBgkxMI24BHkt-20" edge="1">
          <mxGeometry relative="1" as="geometry">
            <mxPoint x="-90" y="820" as="targetPoint" />
            <mxPoint x="-90" y="760" as="sourcePoint" />
          </mxGeometry>
        </mxCell>
        <mxCell id="j30rHgIVBgkxMI24BHkt-30" value="" style="edgeStyle=orthogonalEdgeStyle;html=1;verticalAlign=bottom;endArrow=open;endSize=8;strokeColor=#ff0000;rounded=0;entryX=0.5;entryY=0;entryDx=0;entryDy=0;" parent="1" source="j30rHgIVBgkxMI24BHkt-29" target="j30rHgIVBgkxMI24BHkt-12" edge="1">
          <mxGeometry relative="1" as="geometry">
            <mxPoint x="710" y="240" as="targetPoint" />
            <Array as="points">
              <mxPoint x="710" y="200" />
              <mxPoint x="105" y="200" />
            </Array>
          </mxGeometry>
        </mxCell>
        <mxCell id="j30rHgIVBgkxMI24BHkt-34" value="no" style="edgeStyle=orthogonalEdgeStyle;html=1;align=left;verticalAlign=bottom;endArrow=open;endSize=8;strokeColor=#ff0000;rounded=0;" parent="1" source="j30rHgIVBgkxMI24BHkt-33" target="j30rHgIVBgkxMI24BHkt-36" edge="1">
          <mxGeometry x="-1" relative="1" as="geometry">
            <mxPoint x="700" y="400" as="targetPoint" />
            <Array as="points">
              <mxPoint x="700" y="530" />
            </Array>
          </mxGeometry>
        </mxCell>
        <mxCell id="j30rHgIVBgkxMI24BHkt-35" value="yes" style="edgeStyle=orthogonalEdgeStyle;html=1;align=left;verticalAlign=top;endArrow=open;endSize=8;strokeColor=#ff0000;rounded=0;" parent="1" edge="1">
          <mxGeometry x="-1" y="9" relative="1" as="geometry">
            <mxPoint x="510" y="590" as="targetPoint" />
            <mxPoint x="511" y="550" as="sourcePoint" />
            <Array as="points">
              <mxPoint x="510" y="550" />
            </Array>
            <mxPoint as="offset" />
          </mxGeometry>
        </mxCell>
        <mxCell id="j30rHgIVBgkxMI24BHkt-40" value="" style="edgeStyle=orthogonalEdgeStyle;html=1;verticalAlign=bottom;endArrow=open;endSize=8;strokeColor=#ff0000;rounded=0;entryX=0.5;entryY=0;entryDx=0;entryDy=0;exitX=0.5;exitY=1;exitDx=0;exitDy=0;" parent="1" source="j30rHgIVBgkxMI24BHkt-39" target="j30rHgIVBgkxMI24BHkt-21" edge="1">
          <mxGeometry relative="1" as="geometry">
            <mxPoint x="720" y="540" as="targetPoint" />
            <Array as="points">
              <mxPoint x="113" y="490" />
            </Array>
          </mxGeometry>
        </mxCell>
        <mxCell id="j30rHgIVBgkxMI24BHkt-42" value="" style="edgeStyle=orthogonalEdgeStyle;html=1;verticalAlign=bottom;endArrow=open;endSize=8;strokeColor=#ff0000;rounded=0;" parent="1" source="j30rHgIVBgkxMI24BHkt-41" target="j30rHgIVBgkxMI24BHkt-43" edge="1">
          <mxGeometry relative="1" as="geometry">
            <mxPoint x="710" y="730" as="targetPoint" />
            <Array as="points">
              <mxPoint x="514" y="650" />
              <mxPoint x="710" y="650" />
            </Array>
          </mxGeometry>
        </mxCell>
      </root>
    </mxGraphModel>
  </diagram>
</mxfile>
